<svg width="72" height="72" viewBox="0 0 72 72" fill="none" xmlns="http://www.w3.org/2000/svg">
<rect x="49.9102" y="15.5675" width="15.4869" height="15.5676" rx="3.89189" fill="#43C798"/>
<g filter="url(#filter0_b_3967_4818)">
<path fill-rule="evenodd" clip-rule="evenodd" d="M2.50781 13.3034C2.50781 12.9418 2.80735 12.6487 3.17684 12.6487H10.4593C13.3153 12.6487 15.8331 14.482 16.6538 17.159L18.2842 22.4774C18.2858 22.4824 18.2924 22.4836 18.2955 22.4794C18.8508 21.7491 19.6733 21.4415 20.6732 21.2987C21.6454 21.1599 22.9205 21.1599 24.5197 21.1599H57.3159C59.6865 21.1599 61.398 23.3804 60.7467 25.611L57.2059 37.7387C56.4126 40.4557 53.875 42.3289 50.9874 42.3289H27.7848C24.9288 42.3289 22.4109 40.4956 21.5903 37.8186L18.7926 28.6926C18.7857 28.6703 18.7789 28.648 18.7721 28.6258L15.3722 17.5352C14.7213 15.4121 12.7244 13.9581 10.4593 13.9581H3.17684C2.80735 13.9581 2.50781 13.665 2.50781 13.3034ZM21.3521 54.4411C21.3521 51.7292 23.5986 49.5307 26.3698 49.5307C29.141 49.5307 31.3876 51.7292 31.3876 54.4411C31.3876 57.153 29.141 59.3514 26.3698 59.3514C23.5986 59.3514 21.3521 57.153 21.3521 54.4411ZM44.5451 54.4411C44.5451 51.7292 46.7916 49.5307 49.5628 49.5307C52.334 49.5307 54.5805 51.7292 54.5805 54.4411C54.5805 57.153 52.334 59.3514 49.5628 59.3514C46.7916 59.3514 44.5451 57.153 44.5451 54.4411Z" fill="#43C798" fill-opacity="0.4"/>
<path d="M17.8191 22.62L17.8191 22.62C17.9369 23.0041 18.4399 23.0934 18.6828 22.7738C19.1247 22.1927 19.7944 21.9157 20.742 21.7803C21.6719 21.6475 22.9062 21.6464 24.5197 21.6464H57.3159C59.3766 21.6464 60.8361 23.5692 60.2797 25.4746L56.7389 37.6024C56.0079 40.1061 53.6649 41.8424 50.9874 41.8424H27.7848C25.1366 41.8424 22.8117 40.1431 22.0554 37.676L19.2577 28.55L19.2372 28.4833L19.2372 28.4833L15.8373 17.3926C15.122 15.0595 12.9322 13.4716 10.4593 13.4716H3.17684C3.06605 13.4716 2.9943 13.3864 2.9943 13.3034C2.9943 13.2204 3.06605 13.1352 3.17684 13.1352H10.4593C13.1074 13.1352 15.4324 14.8345 16.1887 17.3016L17.8191 22.62ZM21.8386 54.4411C21.8386 52.0077 23.8573 50.0172 26.3698 50.0172C28.8823 50.0172 30.9011 52.0077 30.9011 54.4411C30.9011 56.8744 28.8823 58.8649 26.3698 58.8649C23.8573 58.8649 21.8386 56.8744 21.8386 54.4411ZM45.0316 54.4411C45.0316 52.0077 47.0503 50.0172 49.5628 50.0172C52.0753 50.0172 54.0941 52.0077 54.0941 54.4411C54.0941 56.8744 52.0753 58.8649 49.5628 58.8649C47.0503 58.8649 45.0316 56.8744 45.0316 54.4411Z" stroke="url(#paint0_linear_3967_4818)" stroke-width="0.972973" stroke-linecap="round" stroke-linejoin="round"/>
</g>
<g filter="url(#filter1_d_3967_4818)">
<path d="M32.4893 35.9999V27.2432" stroke="url(#paint1_linear_3967_4818)" stroke-width="2.43243" stroke-linecap="round"/>
</g>
<g filter="url(#filter2_d_3967_4818)">
<path d="M39.2646 35.9997V27.2429" stroke="url(#paint2_linear_3967_4818)" stroke-width="2.43243" stroke-linecap="round"/>
</g>
<g filter="url(#filter3_d_3967_4818)">
<path d="M46.0381 35.9997V27.2429" stroke="url(#paint3_linear_3967_4818)" stroke-width="2.43243" stroke-linecap="round"/>
</g>
<defs>
<filter id="filter0_b_3967_4818" x="-15.5269" y="-5.38601" width="94.4473" height="82.7721" filterUnits="userSpaceOnUse" color-interpolation-filters="sRGB">
<feFlood flood-opacity="0" result="BackgroundImageFix"/>
<feGaussianBlur in="BackgroundImageFix" stdDeviation="9.01735"/>
<feComposite in2="SourceAlpha" operator="in" result="effect1_backgroundBlur_3967_4818"/>
<feBlend mode="normal" in="SourceGraphic" in2="effect1_backgroundBlur_3967_4818" result="shape"/>
</filter>
<filter id="filter1_d_3967_4818" x="28.1056" y="22.8591" width="15.103" height="23.8605" filterUnits="userSpaceOnUse" color-interpolation-filters="sRGB">
<feFlood flood-opacity="0" result="BackgroundImageFix"/>
<feColorMatrix in="SourceAlpha" type="matrix" values="0 0 0 0 0 0 0 0 0 0 0 0 0 0 0 0 0 0 127 0" result="hardAlpha"/>
<feOffset dx="3.16784" dy="3.16784"/>
<feGaussianBlur stdDeviation="3.16784"/>
<feColorMatrix type="matrix" values="0 0 0 0 0.262745 0 0 0 0 0.780392 0 0 0 0 0.596078 0 0 0 0.3 0"/>
<feBlend mode="normal" in2="BackgroundImageFix" result="effect1_dropShadow_3967_4818"/>
<feBlend mode="normal" in="SourceGraphic" in2="effect1_dropShadow_3967_4818" result="shape"/>
</filter>
<filter id="filter2_d_3967_4818" x="34.881" y="22.8589" width="15.103" height="23.8605" filterUnits="userSpaceOnUse" color-interpolation-filters="sRGB">
<feFlood flood-opacity="0" result="BackgroundImageFix"/>
<feColorMatrix in="SourceAlpha" type="matrix" values="0 0 0 0 0 0 0 0 0 0 0 0 0 0 0 0 0 0 127 0" result="hardAlpha"/>
<feOffset dx="3.16784" dy="3.16784"/>
<feGaussianBlur stdDeviation="3.16784"/>
<feColorMatrix type="matrix" values="0 0 0 0 0.262745 0 0 0 0 0.780392 0 0 0 0 0.596078 0 0 0 0.3 0"/>
<feBlend mode="normal" in2="BackgroundImageFix" result="effect1_dropShadow_3967_4818"/>
<feBlend mode="normal" in="SourceGraphic" in2="effect1_dropShadow_3967_4818" result="shape"/>
</filter>
<filter id="filter3_d_3967_4818" x="41.6544" y="22.8589" width="15.103" height="23.8605" filterUnits="userSpaceOnUse" color-interpolation-filters="sRGB">
<feFlood flood-opacity="0" result="BackgroundImageFix"/>
<feColorMatrix in="SourceAlpha" type="matrix" values="0 0 0 0 0 0 0 0 0 0 0 0 0 0 0 0 0 0 127 0" result="hardAlpha"/>
<feOffset dx="3.16784" dy="3.16784"/>
<feGaussianBlur stdDeviation="3.16784"/>
<feColorMatrix type="matrix" values="0 0 0 0 0.262745 0 0 0 0 0.780392 0 0 0 0 0.596078 0 0 0 0.3 0"/>
<feBlend mode="normal" in2="BackgroundImageFix" result="effect1_dropShadow_3967_4818"/>
<feBlend mode="normal" in="SourceGraphic" in2="effect1_dropShadow_3967_4818" result="shape"/>
</filter>
<linearGradient id="paint0_linear_3967_4818" x1="2.50781" y1="12.6487" x2="48.1047" y2="69.587" gradientUnits="userSpaceOnUse">
<stop stop-color="#43C798" stop-opacity="0.25"/>
<stop offset="1" stop-color="#43C798" stop-opacity="0"/>
</linearGradient>
<linearGradient id="paint1_linear_3967_4818" x1="32.9977" y1="37.8655" x2="35.6705" y2="37.5663" gradientUnits="userSpaceOnUse">
<stop stop-color="white"/>
<stop offset="1" stop-color="white" stop-opacity="0.2"/>
</linearGradient>
<linearGradient id="paint2_linear_3967_4818" x1="39.7731" y1="37.8652" x2="42.4459" y2="37.566" gradientUnits="userSpaceOnUse">
<stop stop-color="white"/>
<stop offset="1" stop-color="white" stop-opacity="0.2"/>
</linearGradient>
<linearGradient id="paint3_linear_3967_4818" x1="46.5465" y1="37.8652" x2="49.2193" y2="37.566" gradientUnits="userSpaceOnUse">
<stop stop-color="white"/>
<stop offset="1" stop-color="white" stop-opacity="0.2"/>
</linearGradient>
</defs>
</svg>
