<svg width="72" height="72" viewBox="0 0 72 72" fill="none" xmlns="http://www.w3.org/2000/svg">
<rect x="40.8965" y="13.2002" width="15.5676" height="15.5676" rx="3.89189" fill="#5BBA6F"/>
<g filter="url(#filter0_b_3967_4733)">
<path d="M24.6165 18.0649H43.5577H43.6576C46.5272 18.0649 47.9621 18.0649 49.0848 18.5584C50.423 19.1466 51.4919 20.2155 52.0801 21.5537C52.5736 22.6764 52.5736 24.1113 52.5736 26.9809V55.7036L48.8763 58.9298L45.179 55.7036L41.4817 58.9298L37.7844 55.7036L34.0871 58.9298L30.3898 55.7036L26.6925 58.9298L22.9952 55.7036L19.2979 58.9298L15.6006 55.7036V26.9809C15.6006 24.1113 15.6006 22.6764 16.0941 21.5537C16.6823 20.2155 17.7511 19.1466 19.0894 18.5584C20.2121 18.0649 21.6469 18.0649 24.5166 18.0649H24.6165Z" fill="#5BBA6F" fill-opacity="0.48"/>
<path d="M45.4988 55.3371L45.179 55.058L44.8591 55.3371L41.4817 58.2842L38.1042 55.3371L37.7844 55.058L37.4645 55.3371L34.0871 58.2842L30.7096 55.3371L30.3898 55.058L30.0699 55.3371L26.6925 58.2842L23.315 55.3371L22.9952 55.058L22.6753 55.3371L19.2979 58.2842L16.0871 55.4825V26.9809C16.0871 25.5391 16.0874 24.4834 16.1475 23.6471C16.2073 22.8156 16.3244 22.2386 16.5394 21.7495C17.0786 20.5228 18.0584 19.543 19.2851 19.0038C19.7742 18.7888 20.3512 18.6717 21.1827 18.6119C22.019 18.5517 23.0747 18.5514 24.5166 18.5514H24.6165H43.5577H43.6576C45.0994 18.5514 46.1551 18.5517 46.9914 18.6119C47.8229 18.6717 48.3999 18.7888 48.889 19.0038C50.1157 19.543 51.0955 20.5228 51.6347 21.7495C51.8497 22.2386 51.9668 22.8156 52.0266 23.6471C52.0868 24.4834 52.0871 25.5391 52.0871 26.9809V55.4825L48.8763 58.2842L45.4988 55.3371Z" stroke="url(#paint0_linear_3967_4733)" stroke-width="0.972973" stroke-linecap="round"/>
</g>
<g filter="url(#filter1_d_3967_4733)">
<path d="M26.3018 28.7676H41.8693" stroke="url(#paint1_linear_3967_4733)" stroke-width="2.43243" stroke-linecap="round"/>
</g>
<g filter="url(#filter2_d_3967_4733)">
<path d="M26.3018 36.5515H41.8693" stroke="url(#paint2_linear_3967_4733)" stroke-width="2.43243" stroke-linecap="round"/>
</g>
<defs>
<filter id="filter0_b_3967_4733" x="1.00599" y="3.47035" width="66.1618" height="70.0539" filterUnits="userSpaceOnUse" color-interpolation-filters="sRGB">
<feFlood flood-opacity="0" result="BackgroundImageFix"/>
<feGaussianBlur in="BackgroundImageFix" stdDeviation="7.2973"/>
<feComposite in2="SourceAlpha" operator="in" result="effect1_backgroundBlur_3967_4733"/>
<feBlend mode="normal" in="SourceGraphic" in2="effect1_backgroundBlur_3967_4733" result="shape"/>
</filter>
<filter id="filter1_d_3967_4733" x="21.9181" y="24.3834" width="30.6713" height="15.104" filterUnits="userSpaceOnUse" color-interpolation-filters="sRGB">
<feFlood flood-opacity="0" result="BackgroundImageFix"/>
<feColorMatrix in="SourceAlpha" type="matrix" values="0 0 0 0 0 0 0 0 0 0 0 0 0 0 0 0 0 0 127 0" result="hardAlpha"/>
<feOffset dx="3.16784" dy="3.16784"/>
<feGaussianBlur stdDeviation="3.16784"/>
<feColorMatrix type="matrix" values="0 0 0 0 0.356863 0 0 0 0 0.729412 0 0 0 0 0.435294 0 0 0 0.3 0"/>
<feBlend mode="normal" in2="BackgroundImageFix" result="effect1_dropShadow_3967_4733"/>
<feBlend mode="normal" in="SourceGraphic" in2="effect1_dropShadow_3967_4733" result="shape"/>
</filter>
<filter id="filter2_d_3967_4733" x="21.9181" y="32.1674" width="30.6713" height="15.104" filterUnits="userSpaceOnUse" color-interpolation-filters="sRGB">
<feFlood flood-opacity="0" result="BackgroundImageFix"/>
<feColorMatrix in="SourceAlpha" type="matrix" values="0 0 0 0 0 0 0 0 0 0 0 0 0 0 0 0 0 0 127 0" result="hardAlpha"/>
<feOffset dx="3.16784" dy="3.16784"/>
<feGaussianBlur stdDeviation="3.16784"/>
<feColorMatrix type="matrix" values="0 0 0 0 0.356863 0 0 0 0 0.729412 0 0 0 0 0.435294 0 0 0 0.3 0"/>
<feBlend mode="normal" in2="BackgroundImageFix" result="effect1_dropShadow_3967_4733"/>
<feBlend mode="normal" in="SourceGraphic" in2="effect1_dropShadow_3967_4733" result="shape"/>
</filter>
<linearGradient id="paint0_linear_3967_4733" x1="15.6006" y1="18.0649" x2="56.2781" y2="54.8311" gradientUnits="userSpaceOnUse">
<stop stop-color="#5BBA6F" stop-opacity="0.25"/>
<stop offset="1" stop-color="#5BBA6F" stop-opacity="0"/>
</linearGradient>
<linearGradient id="paint1_linear_3967_4733" x1="34.5695" y1="30.8376" x2="34.9936" y2="24.3654" gradientUnits="userSpaceOnUse">
<stop stop-color="white"/>
<stop offset="1" stop-color="white" stop-opacity="0.2"/>
</linearGradient>
<linearGradient id="paint2_linear_3967_4733" x1="34.5695" y1="38.6216" x2="34.9936" y2="32.1494" gradientUnits="userSpaceOnUse">
<stop stop-color="white"/>
<stop offset="1" stop-color="white" stop-opacity="0.2"/>
</linearGradient>
</defs>
</svg>
