<svg width="72" height="72" viewBox="0 0 72 72" fill="none" xmlns="http://www.w3.org/2000/svg">
<path d="M46.3172 15.807C47.4009 14.8827 48.9948 14.8827 50.0785 15.807L50.7382 16.3697C51.2026 16.7658 51.78 17.0052 52.3882 17.0538L53.2523 17.1228C54.6716 17.2361 55.7987 18.3642 55.9119 19.7847L55.9809 20.6495C56.0294 21.2582 56.2686 21.8361 56.6643 22.3009L57.2265 22.9612C58.1501 24.0459 58.1501 25.6411 57.2265 26.7258L56.6643 27.3861C56.2686 27.8509 56.0294 28.4288 55.9809 29.0375L55.9119 29.9023C55.7987 31.3228 54.6716 32.4509 53.2523 32.5642L52.3882 32.6332C51.78 32.6818 51.2026 32.9212 50.7382 33.3173L50.0785 33.88C48.9948 34.8043 47.4009 34.8043 46.3172 33.88L45.6575 33.3173C45.1931 32.9212 44.6157 32.6818 44.0075 32.6332L43.1434 32.5642C41.7241 32.4509 40.5971 31.3228 40.4838 29.9023L40.4149 29.0375C40.3663 28.4288 40.1272 27.8509 39.7314 27.3861L39.1692 26.7258C38.2457 25.6411 38.2457 24.0459 39.1692 22.9612L39.7314 22.3009C40.1272 21.8361 40.3663 21.2582 40.4149 20.6495L40.4838 19.7847C40.5971 18.3642 41.7241 17.2361 43.1434 17.1228L44.0075 17.0538C44.6157 17.0052 45.1931 16.7658 45.6575 16.3697L46.3172 15.807Z" fill="#ED254E"/>
<g filter="url(#filter0_b_3967_4743)">
<path d="M31.2347 15.7351C33.7272 13.6091 37.3932 13.6091 39.8857 15.7351L41.403 17.0293C42.4711 17.9403 43.7992 18.4909 45.198 18.6026L47.1854 18.7613C50.4498 19.0221 53.042 21.6165 53.3025 24.8838L53.4611 26.8728C53.5727 28.2729 54.1228 29.6021 55.033 30.6711L56.3261 32.1898C58.4502 34.6844 58.4502 38.3536 56.3261 40.8482L55.033 42.3669C54.1228 43.4359 53.5727 44.7651 53.4611 46.1652L53.3025 48.1543C53.042 51.4215 50.4498 54.016 47.1854 54.2767L45.198 54.4354C43.7992 54.5471 42.4711 55.0977 41.403 56.0087L39.8857 57.3029C37.3932 59.4289 33.7272 59.4289 31.2347 57.3029L29.7173 56.0087C28.6492 55.0977 27.3212 54.5471 25.9223 54.4354L23.935 54.2767C20.6706 54.016 18.0784 51.4215 17.8179 48.1543L17.6593 46.1652C17.5477 44.7651 16.9976 43.4359 16.0874 42.3669L14.7942 40.8482C12.6701 38.3536 12.6702 34.6844 14.7942 32.1898L16.0874 30.6711C16.9976 29.6021 17.5477 28.2729 17.6593 26.8728L17.8179 24.8838C18.0784 21.6165 20.6706 19.0221 23.935 18.7613L25.9223 18.6026C27.3212 18.4909 28.6492 17.9403 29.7173 17.0293L31.2347 15.7351Z" fill="#ED254E" fill-opacity="0.32"/>
<path d="M31.5504 16.1052C33.861 14.1344 37.2593 14.1344 39.57 16.1052L41.0873 17.3994C42.2333 18.3769 43.6583 18.9677 45.1593 19.0875L47.1466 19.2463C50.1726 19.488 52.576 21.893 52.8176 24.9224L52.9761 26.9115C53.0959 28.4135 53.686 29.8395 54.6626 30.9865L55.9557 32.5052C57.925 34.8181 57.925 38.22 55.9557 40.5328L54.6626 42.0515C53.686 43.1985 53.0959 44.6245 52.9761 46.1265L52.8176 48.1156C52.576 51.145 50.1726 53.5501 47.1466 53.7917L45.1593 53.9505C43.6583 54.0704 42.2333 54.6611 41.0873 55.6386L39.57 56.9328C37.2593 58.9036 33.861 58.9036 31.5504 56.9328L30.033 55.6386C28.887 54.6611 27.4621 54.0704 25.9611 53.9505L23.9737 53.7917C20.9478 53.5501 18.5444 51.145 18.3028 48.1156L18.1442 46.1265C18.0245 44.6245 17.4343 43.1985 16.4578 42.0515L15.1646 40.5328C13.1953 38.22 13.1953 34.8181 15.1646 32.5052L16.4578 30.9865C17.4343 29.8395 18.0245 28.4135 18.1442 26.9115L18.3028 24.9224C18.5444 21.893 20.9478 19.488 23.9737 19.2463L25.9611 19.0875C27.4621 18.9677 28.887 18.3769 30.033 17.3994L31.5504 16.1052Z" stroke="url(#paint0_linear_3967_4743)" stroke-width="0.972973" stroke-linecap="round"/>
</g>
<g filter="url(#filter1_d_3967_4743)">
<path d="M30.482 41.6272L40.6982 31.411M32.1847 31.411C32.1847 32.3513 31.4224 33.1137 30.482 33.1137C29.5416 33.1137 28.7793 32.3513 28.7793 31.411C28.7793 30.4706 29.5416 29.7083 30.482 29.7083C31.4224 29.7083 32.1847 30.4706 32.1847 31.411ZM42.4009 41.6272C42.4009 42.5675 41.6386 43.3299 40.6982 43.3299C39.7578 43.3299 38.9955 42.5675 38.9955 41.6272C38.9955 40.6868 39.7578 39.9245 40.6982 39.9245C41.6386 39.9245 42.4009 40.6868 42.4009 41.6272Z" stroke="url(#paint1_linear_3967_4743)" stroke-width="2.43243" stroke-linecap="round"/>
</g>
<defs>
<filter id="filter0_b_3967_4743" x="-1.39342" y="-0.45397" width="73.907" height="73.946" filterUnits="userSpaceOnUse" color-interpolation-filters="sRGB">
<feFlood flood-opacity="0" result="BackgroundImageFix"/>
<feGaussianBlur in="BackgroundImageFix" stdDeviation="7.2973"/>
<feComposite in2="SourceAlpha" operator="in" result="effect1_backgroundBlur_3967_4743"/>
<feBlend mode="normal" in="SourceGraphic" in2="effect1_backgroundBlur_3967_4743" result="shape"/>
</filter>
<filter id="filter1_d_3967_4743" x="24.3956" y="25.3241" width="28.7251" height="28.7255" filterUnits="userSpaceOnUse" color-interpolation-filters="sRGB">
<feFlood flood-opacity="0" result="BackgroundImageFix"/>
<feColorMatrix in="SourceAlpha" type="matrix" values="0 0 0 0 0 0 0 0 0 0 0 0 0 0 0 0 0 0 127 0" result="hardAlpha"/>
<feOffset dx="3.16784" dy="3.16784"/>
<feGaussianBlur stdDeviation="3.16784"/>
<feColorMatrix type="matrix" values="0 0 0 0 0.929412 0 0 0 0 0.145098 0 0 0 0 0.305882 0 0 0 0.3 0"/>
<feBlend mode="normal" in2="BackgroundImageFix" result="effect1_dropShadow_3967_4743"/>
<feBlend mode="normal" in="SourceGraphic" in2="effect1_dropShadow_3967_4743" result="shape"/>
</filter>
<linearGradient id="paint0_linear_3967_4743" x1="13.2012" y1="14.1406" x2="57.9806" y2="58.8359" gradientUnits="userSpaceOnUse">
<stop stop-color="#ED254E" stop-opacity="0.25"/>
<stop offset="1" stop-color="#ED254E" stop-opacity="0"/>
</linearGradient>
<linearGradient id="paint1_linear_3967_4743" x1="35.8782" y1="60.9429" x2="83.1528" y2="14.6022" gradientUnits="userSpaceOnUse">
<stop stop-color="white"/>
<stop offset="1" stop-color="white" stop-opacity="0.2"/>
</linearGradient>
</defs>
</svg>
