<svg width="72" height="72" viewBox="0 0 72 72" fill="none" xmlns="http://www.w3.org/2000/svg">
<rect x="44.1055" y="9.76819" width="15.5446" height="15.5446" rx="3.88614" fill="#5076D8"/>
<g filter="url(#filter0_b_3967_4844)">
<path d="M22.4109 17.7648C28.1111 13.4132 30.9613 11.2374 34.2204 10.8971C35.0252 10.8131 35.8366 10.8131 36.6415 10.8971C39.9006 11.2374 42.7507 13.4132 48.451 17.7648C54.5103 22.1015 57.54 24.2698 58.8039 27.4578C58.9894 27.9257 59.1444 28.4052 59.268 28.8932C60.1096 32.2176 58.9057 35.8001 56.4978 42.9649L56.4222 43.2146C54.3413 50.0883 53.3009 53.5252 50.843 55.7109C50.2835 56.2085 49.6774 56.6511 49.033 57.0324C46.2023 58.7075 42.6119 58.6514 35.4309 58.5393C28.25 58.6514 24.6596 58.7075 21.8289 57.0324C21.1845 56.6511 20.5784 56.2085 20.0189 55.7109C17.561 53.5252 16.5206 50.0883 14.4397 43.2146L14.3641 42.9649C11.9562 35.8 10.7523 32.2176 11.5939 28.8932C11.7175 28.4052 11.8725 27.9257 12.058 27.4578C13.3219 24.2698 16.3515 22.1015 22.4109 17.7648Z" fill="#5076D8" fill-opacity="0.32"/>
<path d="M22.6936 18.1598L22.7057 18.1509C25.5635 15.9692 27.679 14.3549 29.4861 13.2401C31.2849 12.1305 32.741 11.54 34.2708 11.3803C35.0422 11.2998 35.8197 11.2998 36.591 11.3803C38.1209 11.54 39.577 12.1305 41.3758 13.2401C43.1829 14.3549 45.2984 15.9692 48.1562 18.1509L48.1683 18.1598C51.2062 20.3341 53.4541 21.9436 55.1035 23.4056C56.745 24.8605 57.7588 26.1398 58.3523 27.6368C58.5301 28.0853 58.6787 28.5448 58.797 29.0124C59.192 30.5726 59.1153 32.2154 58.6275 34.3822C58.1376 36.5589 57.2445 39.2181 56.0373 42.8101L56.0329 42.8241L55.9573 43.0738C54.914 46.52 54.1413 49.0704 53.3254 51.0344C52.5132 52.9892 51.674 54.3219 50.5202 55.3479C49.984 55.8248 49.4031 56.2489 48.7856 56.6143C47.4567 57.4007 45.9318 57.794 43.8225 57.972C41.7032 58.1509 39.0387 58.1098 35.4385 58.0536H35.4234C31.8232 58.1098 29.1587 58.1509 27.0394 57.972C24.9301 57.794 23.4051 57.4007 22.0763 56.6143C21.4588 56.2489 20.8779 55.8248 20.3417 55.3479C19.1879 54.3219 18.3487 52.9892 17.5365 51.0344C16.7206 49.0704 15.9479 46.52 14.9046 43.0738L14.829 42.8241L14.8245 42.8101C13.6174 39.2181 12.7243 36.5589 12.2344 34.3822C11.7466 32.2153 11.6699 30.5726 12.0649 29.0124C12.1832 28.5447 12.3318 28.0853 12.5096 27.6368C13.1031 26.1398 14.1169 24.8605 15.7583 23.4056C17.4078 21.9436 19.6557 20.3341 22.6936 18.1598Z" stroke="url(#paint0_linear_3967_4844)" stroke-width="0.971535" stroke-linecap="round" stroke-linejoin="round"/>
</g>
<g filter="url(#filter1_d_3967_4844)">
<path d="M29.6709 32.243C29.6709 31.6528 29.1924 31.1743 28.6022 31.1743C28.012 31.1743 27.5335 31.6528 27.5335 32.243H29.6709ZM43.1968 32.243C43.1968 31.6528 42.7183 31.1743 42.1281 31.1743C41.5379 31.1743 41.0594 31.6528 41.0594 32.243H43.1968ZM42.9548 31.4637L41.9383 31.7936L41.9384 31.7938L42.9548 31.4637ZM41.5999 27.2893L42.6164 26.9594L42.6164 26.9593L41.5999 27.2893ZM37.9012 26.9829V25.9142H36.7266L36.8373 27.0836L37.9012 26.9829ZM38.2814 30.9987L37.2175 31.0995L37.2175 31.0998L38.2814 30.9987ZM38.5037 31.3164L38.0071 32.2627L38.0072 32.2628L38.5037 31.3164ZM39.9008 31.9114L39.6214 32.9429L39.6215 32.9429L39.9008 31.9114ZM42.5774 31.9788L42.4626 30.9163L42.4624 30.9163L42.5774 31.9788ZM37.0678 31.8172L36.809 30.7803L36.809 30.7803L37.0678 31.8172ZM38.5073 31.2564L38.046 30.2925L38.0459 30.2925L38.5073 31.2564ZM38.7448 30.8773L37.6817 30.9865L37.6817 30.9865L38.7448 30.8773ZM38.3448 26.9829L39.4079 26.8737L39.3093 25.9142H38.3448V26.9829ZM32.3855 26.9829V25.9142H31.421L31.3224 26.8737L32.3855 26.9829ZM31.9854 30.8773L33.0485 30.9865L33.0485 30.9865L31.9854 30.8773ZM32.2229 31.2564L31.7615 32.2204L31.7615 32.2204L32.2229 31.2564ZM33.6625 31.8172L33.9213 30.7803L33.9213 30.7803L33.6625 31.8172ZM29.1304 27.2893L30.1469 27.6192L30.1469 27.6192L29.1304 27.2893ZM27.7755 31.4637L28.792 31.7936L28.792 31.7936L27.7755 31.4637ZM28.1529 31.9788L28.2679 30.9163L28.2677 30.9163L28.1529 31.9788ZM30.8295 31.9114L31.1088 32.9429L31.1089 32.9429L30.8295 31.9114ZM32.2266 31.3164L32.7231 32.2627L32.7232 32.2627L32.2266 31.3164ZM32.4489 30.9987L33.5128 31.0995L33.5128 31.0995L32.4489 30.9987ZM32.829 26.9829L33.893 27.0836L34.0037 25.9142H32.829V26.9829ZM27.5335 32.243V43.5145H29.6709V32.243H27.5335ZM27.5335 43.5145C27.5335 44.9348 28.6849 46.0861 30.1051 46.0861V43.9487C29.8653 43.9487 29.6709 43.7543 29.6709 43.5145H27.5335ZM30.1051 46.0861H40.6252V43.9487H30.1051V46.0861ZM40.6252 46.0861C42.0455 46.0861 43.1968 44.9348 43.1968 43.5145H41.0594C41.0594 43.7544 40.865 43.9487 40.6252 43.9487V46.0861ZM43.1968 43.5145V32.243H41.0594V43.5145H43.1968ZM43.9713 31.1338L42.6164 26.9594L40.5834 27.6192L41.9383 31.7936L43.9713 31.1338ZM42.6164 26.9593C42.3922 26.2688 41.7392 25.9142 41.1385 25.9142V28.0516C40.9663 28.0516 40.6898 27.9471 40.5834 27.6192L42.6164 26.9593ZM41.1385 25.9142H37.9012V28.0516H41.1385V25.9142ZM36.8373 27.0836L37.2175 31.0995L39.3453 30.898L38.9652 26.8822L36.8373 27.0836ZM37.2175 31.0998C37.2666 31.6168 37.5825 32.0399 38.0071 32.2627L39.0002 30.3701C39.1675 30.4578 39.3212 30.6436 39.3453 30.8977L37.2175 31.0998ZM38.0072 32.2628C38.3157 32.4246 39.0196 32.7799 39.6214 32.9429L40.1802 30.8799C39.8306 30.7852 39.3144 30.5349 39.0002 30.3701L38.0072 32.2628ZM39.6215 32.9429C40.6515 33.2219 42.0264 33.1134 42.6925 33.0413L42.4624 30.9163C41.7757 30.9907 40.7751 31.0409 40.1802 30.8798L39.6215 32.9429ZM42.6923 33.0413C43.5262 32.9512 44.2949 32.1302 43.9712 31.1336L41.9384 31.7938C41.8658 31.5705 41.9155 31.338 42.0358 31.1723C42.1531 31.0106 42.3183 30.9319 42.4626 30.9163L42.6923 33.0413ZM37.3266 32.854C37.9254 32.7046 38.6253 32.3848 38.9688 32.2204L38.0459 30.2925C37.7032 30.4565 37.1765 30.6886 36.809 30.7803L37.3266 32.854ZM38.9686 32.2204C39.466 31.9824 39.8776 31.4458 39.8079 30.7681L37.6817 30.9865C37.6436 30.6154 37.8753 30.3741 38.046 30.2925L38.9686 32.2204ZM39.8079 30.7681L39.4079 26.8737L37.2817 27.0921L37.6817 30.9865L39.8079 30.7681ZM38.3448 25.9142H32.3855V28.0516H38.3448V25.9142ZM31.3224 26.8737L30.9224 30.7681L33.0485 30.9865L33.4486 27.0921L31.3224 26.8737ZM30.9224 30.7681C30.8527 31.4459 31.2644 31.9824 31.7615 32.2204L32.6844 30.2925C32.8549 30.3741 33.0867 30.6152 33.0485 30.9865L30.9224 30.7681ZM31.7615 32.2204C32.105 32.3848 32.8049 32.7046 33.4037 32.854L33.9213 30.7803C33.5538 30.6886 33.027 30.4565 32.6844 30.2925L31.7615 32.2204ZM33.4037 32.854C34.8446 33.2137 35.8857 33.2137 37.3266 32.854L36.809 30.7803C35.7079 31.0551 35.0224 31.0551 33.9213 30.7803L33.4037 32.854ZM28.1139 26.9594L26.759 31.1338L28.792 31.7936L30.1469 27.6192L28.1139 26.9594ZM26.759 31.1338C26.4356 32.1302 27.2041 32.9512 28.038 33.0413L28.2677 30.9163C28.4121 30.9319 28.5772 31.0106 28.6945 31.1722C28.8147 31.338 28.8644 31.5704 28.792 31.7936L26.759 31.1338ZM28.0378 33.0413C28.7039 33.1134 30.0788 33.2219 31.1088 32.9429L30.5501 30.8798C29.9553 31.0409 28.9546 30.9907 28.2679 30.9163L28.0378 33.0413ZM31.1089 32.9429C31.7107 32.7799 32.4146 32.4246 32.7231 32.2627L31.7301 30.3701C31.4159 30.5349 30.8997 30.7852 30.5501 30.8799L31.1089 32.9429ZM32.7232 32.2627C33.1475 32.04 33.4638 31.6169 33.5128 31.0995L31.3849 30.898C31.4091 30.6434 31.563 30.4577 31.73 30.3701L32.7232 32.2627ZM33.5128 31.0995L33.893 27.0836L31.7651 26.8822L31.3849 30.898L33.5128 31.0995ZM32.829 25.9142H29.5918V28.0516H32.829V25.9142ZM29.5918 25.9142C28.9911 25.9142 28.3381 26.2687 28.1139 26.9594L30.1469 27.6192C30.0404 27.9472 29.7639 28.0516 29.5918 28.0516V25.9142Z" fill="url(#paint1_linear_3967_4844)"/>
</g>
<defs>
<filter id="filter0_b_3967_4844" x="-6.68188" y="-7.17394" width="84.2251" height="83.7694" filterUnits="userSpaceOnUse" color-interpolation-filters="sRGB">
<feFlood flood-opacity="0" result="BackgroundImageFix"/>
<feGaussianBlur in="BackgroundImageFix" stdDeviation="9.00402"/>
<feComposite in2="SourceAlpha" operator="in" result="effect1_backgroundBlur_3967_4844"/>
<feBlend mode="normal" in="SourceGraphic" in2="effect1_backgroundBlur_3967_4844" result="shape"/>
</filter>
<filter id="filter1_d_3967_4844" x="23.5204" y="22.751" width="30.0159" height="32.8245" filterUnits="userSpaceOnUse" color-interpolation-filters="sRGB">
<feFlood flood-opacity="0" result="BackgroundImageFix"/>
<feColorMatrix in="SourceAlpha" type="matrix" values="0 0 0 0 0 0 0 0 0 0 0 0 0 0 0 0 0 0 127 0" result="hardAlpha"/>
<feOffset dx="3.16315" dy="3.16315"/>
<feGaussianBlur stdDeviation="3.16315"/>
<feColorMatrix type="matrix" values="0 0 0 0 0.313726 0 0 0 0 0.462745 0 0 0 0 0.847059 0 0 0 0.3 0"/>
<feBlend mode="normal" in2="BackgroundImageFix" result="effect1_dropShadow_3967_4844"/>
<feBlend mode="normal" in="SourceGraphic" in2="effect1_dropShadow_3967_4844" result="shape"/>
</filter>
<linearGradient id="paint0_linear_3967_4844" x1="7.74219" y1="7.8252" x2="64.1103" y2="63.1653" gradientUnits="userSpaceOnUse">
<stop stop-color="#5076D8" stop-opacity="0.25"/>
<stop offset="1" stop-color="#5076D8" stop-opacity="0"/>
</linearGradient>
<linearGradient id="paint1_linear_3967_4844" x1="35.4933" y1="48.8595" x2="59.9467" y2="28.6345" gradientUnits="userSpaceOnUse">
<stop stop-color="white"/>
<stop offset="1" stop-color="white" stop-opacity="0.2"/>
</linearGradient>
</defs>
</svg>
