<svg width="72" height="72" viewBox="0 0 72 72" fill="none" xmlns="http://www.w3.org/2000/svg">
<rect x="59.9053" y="16.5725" width="15.5676" height="15.5676" rx="7.78378" transform="rotate(90 59.9053 16.5725)" fill="#06AED5"/>
<g filter="url(#filter0_b_3967_4809)">
<rect x="13.2012" y="15.5999" width="44.7568" height="44.7568" rx="22.3784" fill="#06AED5" fill-opacity="0.32"/>
<rect x="13.6877" y="16.0863" width="43.7838" height="43.7838" rx="21.8919" stroke="url(#paint0_linear_3967_4809)" stroke-width="0.972973" stroke-linecap="round" stroke-linejoin="round"/>
</g>
<g filter="url(#filter1_d_3967_4809)">
<path d="M28.7705 45.7613V44.7883C28.7705 41.0268 31.8198 37.9775 35.5813 37.9775M35.5813 37.9775C39.3428 37.9775 42.3921 41.0268 42.3921 44.7883V45.7613M35.5813 37.9775C37.7307 37.9775 39.4732 36.235 39.4732 34.0856C39.4732 31.9362 37.7307 30.1937 35.5813 30.1937C33.4319 30.1937 31.6894 31.9362 31.6894 34.0856C31.6894 36.235 33.4319 37.9775 35.5813 37.9775Z" stroke="url(#paint1_linear_3967_4809)" stroke-width="2.43243" stroke-linecap="round"/>
</g>
<defs>
<filter id="filter0_b_3967_4809" x="-4.83352" y="-2.43484" width="80.8262" height="80.8261" filterUnits="userSpaceOnUse" color-interpolation-filters="sRGB">
<feFlood flood-opacity="0" result="BackgroundImageFix"/>
<feGaussianBlur in="BackgroundImageFix" stdDeviation="9.01735"/>
<feComposite in2="SourceAlpha" operator="in" result="effect1_backgroundBlur_3967_4809"/>
<feBlend mode="normal" in="SourceGraphic" in2="effect1_backgroundBlur_3967_4809" result="shape"/>
</filter>
<filter id="filter1_d_3967_4809" x="24.3869" y="25.8097" width="28.7251" height="30.6713" filterUnits="userSpaceOnUse" color-interpolation-filters="sRGB">
<feFlood flood-opacity="0" result="BackgroundImageFix"/>
<feColorMatrix in="SourceAlpha" type="matrix" values="0 0 0 0 0 0 0 0 0 0 0 0 0 0 0 0 0 0 127 0" result="hardAlpha"/>
<feOffset dx="3.16784" dy="3.16784"/>
<feGaussianBlur stdDeviation="3.16784"/>
<feColorMatrix type="matrix" values="0 0 0 0 0.0235294 0 0 0 0 0.682353 0 0 0 0 0.835294 0 0 0 0.3 0"/>
<feBlend mode="normal" in2="BackgroundImageFix" result="effect1_dropShadow_3967_4809"/>
<feBlend mode="normal" in="SourceGraphic" in2="effect1_dropShadow_3967_4809" result="shape"/>
</filter>
<linearGradient id="paint0_linear_3967_4809" x1="13.2012" y1="15.5999" x2="57.9806" y2="60.3339" gradientUnits="userSpaceOnUse">
<stop stop-color="#06AED5" stop-opacity="0.25"/>
<stop offset="1" stop-color="#06AED5" stop-opacity="0"/>
</linearGradient>
<linearGradient id="paint1_linear_3967_4809" x1="35.6469" y1="39.6358" x2="46.3897" y2="29.1051" gradientUnits="userSpaceOnUse">
<stop stop-color="white"/>
<stop offset="1" stop-color="white" stop-opacity="0.2"/>
</linearGradient>
</defs>
</svg>
