<svg width="72" height="72" viewBox="0 0 72 72" fill="none" xmlns="http://www.w3.org/2000/svg">
<g filter="url(#filter0_b_3967_4799)">
<path d="M14.5957 22.4432C14.5957 18.7739 14.5957 16.9392 15.7356 15.7993C16.8755 14.6594 18.7102 14.6594 22.3795 14.6594H26.4335C30.1029 14.6594 31.9375 14.6594 33.0774 15.7993C34.2173 16.9392 34.2173 18.7739 34.2173 22.4432V57.4702H22.3795C18.7102 57.4702 16.8755 57.4702 15.7356 56.3303C14.5957 55.1904 14.5957 53.3558 14.5957 49.6865V22.4432Z" fill="#B84FD7" fill-opacity="0.32"/>
<path d="M15.0822 22.4432C15.0822 20.5948 15.0832 19.2574 15.2203 18.2376C15.3556 17.2317 15.6151 16.6078 16.0796 16.1433C16.5441 15.6788 17.168 15.4193 18.1738 15.2841C19.1937 15.1469 20.5311 15.1459 22.3795 15.1459H26.4335C28.2819 15.1459 29.6193 15.1469 30.6392 15.2841C31.6451 15.4193 32.2689 15.6788 32.7334 16.1433C33.1979 16.6078 33.4575 17.2317 33.5927 18.2376C33.7298 19.2574 33.7308 20.5948 33.7308 22.4432V56.9837H22.3795C20.5311 56.9837 19.1937 56.9827 18.1738 56.8456C17.168 56.7104 16.5441 56.4508 16.0796 55.9863C15.6151 55.5218 15.3556 54.898 15.2203 53.8921C15.0832 52.8722 15.0822 51.5349 15.0822 49.6865V22.4432Z" stroke="url(#paint0_linear_3967_4799)" stroke-width="0.972973" stroke-linecap="round"/>
</g>
<g filter="url(#filter1_b_3967_4799)">
<path d="M14.5957 37.8484H49.6227C53.292 37.8484 55.1267 37.8484 56.2666 38.9883C57.4065 40.1282 57.4065 41.9629 57.4065 45.6322V49.6862C57.4065 53.3555 57.4065 55.1902 56.2666 56.3301C55.1267 57.47 53.292 57.47 49.6227 57.47H22.3795C18.7102 57.47 16.8755 57.47 15.7356 56.3301C14.5957 55.1902 14.5957 53.3555 14.5957 49.6862V37.8484Z" fill="#816BC0" fill-opacity="0.32"/>
<path d="M15.0822 38.3349H49.6227C51.4711 38.3349 52.8085 38.3359 53.8284 38.473C54.8342 38.6083 55.4581 38.8678 55.9226 39.3323C56.3871 39.7968 56.6466 40.4207 56.7819 41.4265C56.919 42.4464 56.92 43.7838 56.92 45.6322V49.6862C56.92 51.5346 56.919 52.872 56.7819 53.8919C56.6466 54.8977 56.3871 55.5216 55.9226 55.9861C55.4581 56.4506 54.8342 56.7101 53.8284 56.8454C52.8085 56.9825 51.4711 56.9835 49.6227 56.9835H22.3795C20.5311 56.9835 19.1937 56.9825 18.1738 56.8454C17.168 56.7101 16.5441 56.4506 16.0796 55.9861C15.6151 55.5216 15.3556 54.8977 15.2203 53.8919C15.0832 52.872 15.0822 51.5346 15.0822 49.6862V38.3349Z" stroke="url(#paint1_linear_3967_4799)" stroke-width="0.972973" stroke-linecap="round"/>
</g>
<g filter="url(#filter2_b_3967_4799)">
<path d="M14.5957 37.8481H49.6227C53.292 37.8481 55.1267 37.8481 56.2666 38.9881C57.4065 40.128 57.4065 41.9626 57.4065 45.6319V49.686C57.4065 53.3553 57.4065 55.1899 56.2666 56.3299C55.1267 57.4698 53.292 57.4698 49.6227 57.4698H22.3795C18.7102 57.4698 16.8755 57.4698 15.7356 56.3299C14.5957 55.1899 14.5957 53.3553 14.5957 49.686V37.8481Z" fill="#B84FD7" fill-opacity="0.32"/>
<path d="M15.0822 38.3346H49.6227C51.4711 38.3346 52.8085 38.3357 53.8284 38.4728C54.8342 38.608 55.4581 38.8676 55.9226 39.3321C56.3871 39.7966 56.6466 40.4204 56.7819 41.4263C56.919 42.4462 56.92 43.7835 56.92 45.6319V49.686C56.92 51.5344 56.919 52.8718 56.7819 53.8916C56.6466 54.8975 56.3871 55.5214 55.9226 55.9859C55.4581 56.4504 54.8342 56.7099 53.8284 56.8451C52.8085 56.9822 51.4711 56.9833 49.6227 56.9833H22.3795C20.5311 56.9833 19.1937 56.9822 18.1738 56.8451C17.168 56.7099 16.5441 56.4504 16.0796 55.9859C15.6151 55.5214 15.3556 54.8975 15.2203 53.8916C15.0832 52.8718 15.0822 51.5344 15.0822 49.686V38.3346Z" stroke="url(#paint2_linear_3967_4799)" stroke-width="0.972973" stroke-linecap="round"/>
</g>
<rect x="57.4062" y="14.6594" width="14.2703" height="14.2703" rx="3.89189" transform="rotate(90 57.4062 14.6594)" fill="#B84FD7"/>
<defs>
<filter id="filter0_b_3967_4799" x="0.00110817" y="0.0648289" width="48.8113" height="72" filterUnits="userSpaceOnUse" color-interpolation-filters="sRGB">
<feFlood flood-opacity="0" result="BackgroundImageFix"/>
<feGaussianBlur in="BackgroundImageFix" stdDeviation="7.2973"/>
<feComposite in2="SourceAlpha" operator="in" result="effect1_backgroundBlur_3967_4799"/>
<feBlend mode="normal" in="SourceGraphic" in2="effect1_backgroundBlur_3967_4799" result="shape"/>
</filter>
<filter id="filter1_b_3967_4799" x="0.00110817" y="23.2538" width="71.9997" height="48.8108" filterUnits="userSpaceOnUse" color-interpolation-filters="sRGB">
<feFlood flood-opacity="0" result="BackgroundImageFix"/>
<feGaussianBlur in="BackgroundImageFix" stdDeviation="7.2973"/>
<feComposite in2="SourceAlpha" operator="in" result="effect1_backgroundBlur_3967_4799"/>
<feBlend mode="normal" in="SourceGraphic" in2="effect1_backgroundBlur_3967_4799" result="shape"/>
</filter>
<filter id="filter2_b_3967_4799" x="0.00110817" y="23.2535" width="71.9997" height="48.8108" filterUnits="userSpaceOnUse" color-interpolation-filters="sRGB">
<feFlood flood-opacity="0" result="BackgroundImageFix"/>
<feGaussianBlur in="BackgroundImageFix" stdDeviation="7.2973"/>
<feComposite in2="SourceAlpha" operator="in" result="effect1_backgroundBlur_3967_4799"/>
<feBlend mode="normal" in="SourceGraphic" in2="effect1_backgroundBlur_3967_4799" result="shape"/>
</filter>
<linearGradient id="paint0_linear_3967_4799" x1="14.5957" y1="14.6594" x2="47.0212" y2="29.5061" gradientUnits="userSpaceOnUse">
<stop stop-color="#816BC0" stop-opacity="0.25"/>
<stop offset="1" stop-color="#816BC0" stop-opacity="0"/>
</linearGradient>
<linearGradient id="paint1_linear_3967_4799" x1="14.5957" y1="37.8484" x2="29.4771" y2="70.284" gradientUnits="userSpaceOnUse">
<stop stop-color="#816BC0" stop-opacity="0.25"/>
<stop offset="1" stop-color="#816BC0" stop-opacity="0"/>
</linearGradient>
<linearGradient id="paint2_linear_3967_4799" x1="14.5957" y1="37.8481" x2="29.4771" y2="70.2837" gradientUnits="userSpaceOnUse">
<stop stop-color="#816BC0" stop-opacity="0.25"/>
<stop offset="1" stop-color="#816BC0" stop-opacity="0"/>
</linearGradient>
</defs>
</svg>
