<svg width="72" height="72" viewBox="0 0 72 72" fill="none" xmlns="http://www.w3.org/2000/svg">
<g filter="url(#filter0_b_3967_4761)">
<path d="M9.72949 36.4085C9.72949 30.5009 9.72949 27.5471 11.4079 25.4247C13.0864 23.3023 15.9607 22.6215 21.7093 21.26L27.5471 19.8774C36.3766 17.7862 40.7914 16.7406 43.7469 19.0779C46.7025 21.4152 46.7025 25.9521 46.7025 35.0259V36.1105C46.7025 42.0181 46.7025 44.9719 45.024 47.0943C43.3456 49.2167 40.4713 49.8975 34.7227 51.259L28.8849 52.6416C20.0553 54.7328 15.6406 55.7784 12.685 53.4411C9.72949 51.1038 9.72949 46.5669 9.72949 37.4931V36.4085Z" fill="#289590" fill-opacity="0.32"/>
<path d="M10.216 36.4085C10.216 33.4428 10.2168 31.2617 10.4223 29.5553C10.6262 27.862 11.0265 26.6912 11.7895 25.7264C12.5525 24.7616 13.5994 24.1023 15.2002 23.5136C16.8133 22.9204 18.9355 22.4169 21.8214 21.7334L27.6592 20.3508C32.0888 19.3016 35.3595 18.5283 37.8931 18.3015C40.4139 18.0759 42.1079 18.4019 43.4452 19.4595C44.7824 20.517 45.4901 22.0902 45.8515 24.5952C46.2148 27.1129 46.216 30.4737 46.216 35.0259V36.1105C46.216 39.0762 46.2152 41.2573 46.0097 42.9637C45.8057 44.657 45.4054 45.8278 44.6424 46.7925C43.8795 47.7573 42.8325 48.4167 41.2318 49.0054C39.6186 49.5986 37.4965 50.1021 34.6106 50.7856L28.7727 52.1682C24.3431 53.2173 21.0725 53.9907 18.5388 54.2175C16.018 54.4431 14.3241 54.1171 12.9868 53.0595C11.6495 52.002 10.9418 50.4288 10.5804 47.9238C10.2172 45.4061 10.216 42.0453 10.216 37.4931V36.4085Z" stroke="url(#paint0_linear_3967_4761)" stroke-width="0.972973" stroke-linecap="round" stroke-linejoin="round"/>
</g>
<rect x="51.5674" y="17.2869" width="15.5676" height="15.5676" rx="7.78378" fill="#289590"/>
<g filter="url(#filter1_b_3967_4761)">
<path d="M9.72949 39.665C9.72949 32.3264 9.72949 28.657 12.0093 26.3772C14.2891 24.0974 17.9584 24.0974 25.2971 24.0974L46.7025 24.0974C54.0411 24.0974 57.7104 24.0974 59.9902 26.3772C62.27 28.657 62.27 32.3264 62.27 39.665V41.6109C62.27 48.9495 62.27 52.6189 59.9902 54.8987C57.7104 57.1785 54.0411 57.1785 46.7025 57.1785H25.2971C17.9584 57.1785 14.2891 57.1785 12.0093 54.8987C9.72949 52.6189 9.72949 48.9495 9.72949 41.6109L9.72949 39.665Z" fill="#289590" fill-opacity="0.32"/>
<path d="M10.216 39.665C10.216 35.9819 10.217 33.2686 10.4966 31.1889C10.7743 29.1232 11.3189 27.7557 12.3533 26.7212C13.3878 25.6868 14.7553 25.1423 16.821 24.8645C18.9006 24.5849 21.614 24.5839 25.2971 24.5839L46.7025 24.5839C50.3855 24.5839 53.0989 24.5849 55.1786 24.8645C57.2443 25.1423 58.6118 25.6868 59.6462 26.7212C60.6807 27.7557 61.2252 29.1232 61.5029 31.1889C61.7825 33.2686 61.7835 35.9819 61.7835 39.665V41.6109C61.7835 45.294 61.7825 48.0073 61.5029 50.087C61.2252 52.1527 60.6807 53.5202 59.6462 54.5547C58.6118 55.5891 57.2443 56.1336 55.1786 56.4114C53.0989 56.691 50.3855 56.692 46.7025 56.692H25.2971C21.614 56.692 18.9006 56.691 16.821 56.4114C14.7553 56.1336 13.3878 55.5891 12.3533 54.5547C11.3189 53.5202 10.7743 52.1527 10.4966 50.087C10.217 48.0073 10.216 45.294 10.216 41.6109L10.216 39.665Z" stroke="url(#paint1_linear_3967_4761)" stroke-width="0.972973" stroke-linecap="round" stroke-linejoin="round"/>
</g>
<g filter="url(#filter2_d_3967_4761)">
<path fill-rule="evenodd" clip-rule="evenodd" d="M35.9978 29.9353C36.7367 29.9353 37.3356 30.5343 37.3356 31.2731V33.056L40.4572 33.0569C41.1961 33.0569 41.7951 33.6559 41.7951 34.3948C41.7951 35.1336 41.1961 35.7326 40.4572 35.7326L37.3356 35.7317V39.2993L38.2275 39.3002C40.6904 39.3002 42.687 41.2967 42.687 43.7596C42.687 46.2225 40.6904 48.2191 38.2275 48.2191L37.3356 48.2182V50.0029C37.3356 50.7417 36.7367 51.3407 35.9978 51.3407C35.2589 51.3407 34.6599 50.7417 34.6599 50.0029V48.2182L30.6464 48.2191C29.9076 48.2191 29.3086 47.6201 29.3086 46.8812C29.3086 46.1424 29.9076 45.5434 30.6464 45.5434L34.6599 45.5425V41.975L33.7681 41.9758C31.3052 41.9758 29.3086 39.9793 29.3086 37.5164C29.3086 35.0535 31.3052 33.0569 33.7681 33.0569L34.6599 33.056V31.2731C34.6599 30.5343 35.2589 29.9353 35.9978 29.9353ZM37.3356 45.5425L38.2275 45.5434C39.2127 45.5434 40.0113 44.7448 40.0113 43.7596C40.0113 42.7745 39.2127 41.9758 38.2275 41.9758L37.3356 41.975V45.5425ZM34.6599 39.2993V35.7317L33.7681 35.7326C32.7829 35.7326 31.9843 36.5312 31.9843 37.5164C31.9843 38.5015 32.7829 39.3002 33.7681 39.3002L34.6599 39.2993Z" fill="url(#paint2_linear_3967_4761)"/>
</g>
<defs>
<filter id="filter0_b_3967_4761" x="-8.3052" y="-0.28738" width="73.042" height="73.0938" filterUnits="userSpaceOnUse" color-interpolation-filters="sRGB">
<feFlood flood-opacity="0" result="BackgroundImageFix"/>
<feGaussianBlur in="BackgroundImageFix" stdDeviation="9.01735"/>
<feComposite in2="SourceAlpha" operator="in" result="effect1_backgroundBlur_3967_4761"/>
<feBlend mode="normal" in="SourceGraphic" in2="effect1_backgroundBlur_3967_4761" result="shape"/>
</filter>
<filter id="filter1_b_3967_4761" x="-8.3052" y="6.06272" width="88.6104" height="69.1504" filterUnits="userSpaceOnUse" color-interpolation-filters="sRGB">
<feFlood flood-opacity="0" result="BackgroundImageFix"/>
<feGaussianBlur in="BackgroundImageFix" stdDeviation="9.01735"/>
<feComposite in2="SourceAlpha" operator="in" result="effect1_backgroundBlur_3967_4761"/>
<feBlend mode="normal" in="SourceGraphic" in2="effect1_backgroundBlur_3967_4761" result="shape"/>
</filter>
<filter id="filter2_d_3967_4761" x="26.1408" y="26.7675" width="26.0493" height="34.0769" filterUnits="userSpaceOnUse" color-interpolation-filters="sRGB">
<feFlood flood-opacity="0" result="BackgroundImageFix"/>
<feColorMatrix in="SourceAlpha" type="matrix" values="0 0 0 0 0 0 0 0 0 0 0 0 0 0 0 0 0 0 127 0" result="hardAlpha"/>
<feOffset dx="3.16784" dy="3.16784"/>
<feGaussianBlur stdDeviation="3.16784"/>
<feColorMatrix type="matrix" values="0 0 0 0 0.113725 0 0 0 0 0.470588 0 0 0 0 0.454902 0 0 0 0.24 0"/>
<feBlend mode="normal" in2="BackgroundImageFix" result="effect1_dropShadow_3967_4761"/>
<feBlend mode="normal" in="SourceGraphic" in2="effect1_dropShadow_3967_4761" result="shape"/>
</filter>
<linearGradient id="paint0_linear_3967_4761" x1="9.72949" y1="24.0973" x2="39.5892" y2="71.4735" gradientUnits="userSpaceOnUse">
<stop stop-color="#289590" stop-opacity="0.25"/>
<stop offset="1" stop-color="#289590" stop-opacity="0"/>
</linearGradient>
<linearGradient id="paint1_linear_3967_4761" x1="9.72949" y1="24.0974" x2="39.5892" y2="71.4735" gradientUnits="userSpaceOnUse">
<stop stop-color="#289590" stop-opacity="0.25"/>
<stop offset="1" stop-color="#289590" stop-opacity="0"/>
</linearGradient>
<linearGradient id="paint2_linear_3967_4761" x1="36.1104" y1="55.901" x2="62.4357" y2="39.7727" gradientUnits="userSpaceOnUse">
<stop stop-color="white"/>
<stop offset="1" stop-color="white" stop-opacity="0.2"/>
</linearGradient>
</defs>
</svg>
