<svg width="72" height="72" viewBox="0 0 72 72" fill="none" xmlns="http://www.w3.org/2000/svg">
<rect x="35.1406" y="16.5403" width="14.1194" height="14.1194" rx="3.89189" fill="#D74FA9"/>
<g filter="url(#filter0_b_3967_4881)">
<circle cx="19.2563" cy="48.309" r="6.17725" fill="#D74FA9" fill-opacity="0.32"/>
<circle cx="19.2563" cy="48.309" r="5.69076" stroke="url(#paint0_linear_3967_4881)" stroke-width="0.972973" stroke-linecap="round"/>
</g>
<g filter="url(#filter1_b_3967_4881)">
<circle cx="50.1421" cy="48.309" r="6.17725" fill="#D74FA9" fill-opacity="0.32"/>
<circle cx="50.1421" cy="48.309" r="5.69076" stroke="url(#paint1_linear_3967_4881)" stroke-width="0.972973" stroke-linecap="round"/>
</g>
<g filter="url(#filter2_b_3967_4881)">
<path d="M7.78418 21.835C7.78418 19.8855 9.36455 18.3052 11.314 18.3052H37.788C39.7374 18.3052 41.3178 19.8855 41.3178 21.835V26.2474H54.9292C56.3134 26.2474 57.5699 27.0564 58.1427 28.3165L63.5042 40.1119C63.7128 40.5707 63.8206 41.0687 63.8206 41.5726V44.7791C63.8206 46.7286 62.2403 48.3089 60.2908 48.3089H55.4372C55.4372 45.3847 53.0667 43.0142 50.1424 43.0142C47.2182 43.0142 44.8477 45.3847 44.8477 48.3089H41.3178H24.551C24.551 45.3847 22.1804 43.0142 19.2562 43.0142C16.332 43.0142 13.9614 45.3847 13.9614 48.3089H11.314C9.36455 48.3089 7.78418 46.7286 7.78418 44.7791V21.835Z" fill="#D74FA9" fill-opacity="0.32"/>
<path d="M40.8313 26.2474V26.7338H41.3178H54.9292C56.1227 26.7338 57.206 27.4314 57.6998 28.5179L63.0614 40.3132C63.2411 40.7088 63.3341 41.1382 63.3341 41.5726V44.7791C63.3341 46.4599 61.9716 47.8225 60.2908 47.8225H55.9035C55.6565 44.8572 53.1715 42.5277 50.1424 42.5277C47.1134 42.5277 44.6284 44.8572 44.3814 47.8225H41.3178H25.0173C24.7702 44.8572 22.2853 42.5277 19.2562 42.5277C16.2271 42.5277 13.7422 44.8572 13.4951 47.8225H11.314C9.63323 47.8225 8.27067 46.4599 8.27067 44.7791V21.835C8.27067 20.1542 9.63323 18.7917 11.314 18.7917H37.788C39.4688 18.7917 40.8313 20.1542 40.8313 21.835V26.2474Z" stroke="url(#paint2_linear_3967_4881)" stroke-width="0.972973" stroke-linecap="round"/>
</g>
<g filter="url(#filter3_d_3967_4881)">
<rect x="13.1359" y="23.8377" width="10.7027" height="0.972973" rx="0.486486" stroke="url(#paint3_linear_3967_4881)" stroke-width="0.972973"/>
</g>
<g filter="url(#filter4_d_3967_4881)">
<rect x="17.0265" y="28.7024" width="6.81081" height="0.972973" rx="0.486486" stroke="url(#paint4_linear_3967_4881)" stroke-width="0.972973"/>
</g>
<g filter="url(#filter5_d_3967_4881)">
<rect x="58.8654" y="38.4323" width="2.91892" height="0.972973" rx="0.486486" stroke="url(#paint5_linear_3967_4881)" stroke-width="0.972973"/>
</g>
<defs>
<filter id="filter0_b_3967_4881" x="-1.51549" y="27.5371" width="41.5437" height="41.5437" filterUnits="userSpaceOnUse" color-interpolation-filters="sRGB">
<feFlood flood-opacity="0" result="BackgroundImageFix"/>
<feGaussianBlur in="BackgroundImageFix" stdDeviation="7.2973"/>
<feComposite in2="SourceAlpha" operator="in" result="effect1_backgroundBlur_3967_4881"/>
<feBlend mode="normal" in="SourceGraphic" in2="effect1_backgroundBlur_3967_4881" result="shape"/>
</filter>
<filter id="filter1_b_3967_4881" x="29.3702" y="27.5371" width="41.5437" height="41.5437" filterUnits="userSpaceOnUse" color-interpolation-filters="sRGB">
<feFlood flood-opacity="0" result="BackgroundImageFix"/>
<feGaussianBlur in="BackgroundImageFix" stdDeviation="7.2973"/>
<feComposite in2="SourceAlpha" operator="in" result="effect1_backgroundBlur_3967_4881"/>
<feBlend mode="normal" in="SourceGraphic" in2="effect1_backgroundBlur_3967_4881" result="shape"/>
</filter>
<filter id="filter2_b_3967_4881" x="-6.81042" y="3.71058" width="85.2253" height="59.193" filterUnits="userSpaceOnUse" color-interpolation-filters="sRGB">
<feFlood flood-opacity="0" result="BackgroundImageFix"/>
<feGaussianBlur in="BackgroundImageFix" stdDeviation="7.2973"/>
<feComposite in2="SourceAlpha" operator="in" result="effect1_backgroundBlur_3967_4881"/>
<feBlend mode="normal" in="SourceGraphic" in2="effect1_backgroundBlur_3967_4881" result="shape"/>
</filter>
<filter id="filter3_d_3967_4881" x="9.48158" y="20.1834" width="24.3471" height="14.6173" filterUnits="userSpaceOnUse" color-interpolation-filters="sRGB">
<feFlood flood-opacity="0" result="BackgroundImageFix"/>
<feColorMatrix in="SourceAlpha" type="matrix" values="0 0 0 0 0 0 0 0 0 0 0 0 0 0 0 0 0 0 127 0" result="hardAlpha"/>
<feOffset dx="3.16784" dy="3.16784"/>
<feGaussianBlur stdDeviation="3.16784"/>
<feColorMatrix type="matrix" values="0 0 0 0 0.843137 0 0 0 0 0.309804 0 0 0 0 0.662745 0 0 0 0.3 0"/>
<feBlend mode="normal" in2="BackgroundImageFix" result="effect1_dropShadow_3967_4881"/>
<feBlend mode="normal" in="SourceGraphic" in2="effect1_dropShadow_3967_4881" result="shape"/>
</filter>
<filter id="filter4_d_3967_4881" x="13.3722" y="25.0481" width="20.4555" height="14.6173" filterUnits="userSpaceOnUse" color-interpolation-filters="sRGB">
<feFlood flood-opacity="0" result="BackgroundImageFix"/>
<feColorMatrix in="SourceAlpha" type="matrix" values="0 0 0 0 0 0 0 0 0 0 0 0 0 0 0 0 0 0 127 0" result="hardAlpha"/>
<feOffset dx="3.16784" dy="3.16784"/>
<feGaussianBlur stdDeviation="3.16784"/>
<feColorMatrix type="matrix" values="0 0 0 0 0.843137 0 0 0 0 0.309804 0 0 0 0 0.662745 0 0 0 0.3 0"/>
<feBlend mode="normal" in2="BackgroundImageFix" result="effect1_dropShadow_3967_4881"/>
<feBlend mode="normal" in="SourceGraphic" in2="effect1_dropShadow_3967_4881" result="shape"/>
</filter>
<filter id="filter5_d_3967_4881" x="55.2111" y="34.778" width="16.5629" height="14.6173" filterUnits="userSpaceOnUse" color-interpolation-filters="sRGB">
<feFlood flood-opacity="0" result="BackgroundImageFix"/>
<feColorMatrix in="SourceAlpha" type="matrix" values="0 0 0 0 0 0 0 0 0 0 0 0 0 0 0 0 0 0 127 0" result="hardAlpha"/>
<feOffset dx="3.16784" dy="3.16784"/>
<feGaussianBlur stdDeviation="3.16784"/>
<feColorMatrix type="matrix" values="0 0 0 0 0.843137 0 0 0 0 0.309804 0 0 0 0 0.662745 0 0 0 0.3 0"/>
<feBlend mode="normal" in2="BackgroundImageFix" result="effect1_dropShadow_3967_4881"/>
<feBlend mode="normal" in="SourceGraphic" in2="effect1_dropShadow_3967_4881" result="shape"/>
</filter>
<linearGradient id="paint0_linear_3967_4881" x1="13.0791" y1="42.1317" x2="25.4399" y2="54.4799" gradientUnits="userSpaceOnUse">
<stop stop-color="#D74FA9" stop-opacity="0.25"/>
<stop offset="1" stop-color="#9AC554" stop-opacity="0"/>
<stop offset="1" stop-color="#D74FA9" stop-opacity="0"/>
</linearGradient>
<linearGradient id="paint1_linear_3967_4881" x1="43.9648" y1="42.1317" x2="56.3256" y2="54.4799" gradientUnits="userSpaceOnUse">
<stop stop-color="#D74FA9" stop-opacity="0.25"/>
<stop offset="1" stop-color="#9AC554" stop-opacity="0"/>
<stop offset="1" stop-color="#D74FA9" stop-opacity="0"/>
</linearGradient>
<linearGradient id="paint2_linear_3967_4881" x1="7.78418" y1="18.3052" x2="32.782" y2="64.9449" gradientUnits="userSpaceOnUse">
<stop stop-color="#D74FA9" stop-opacity="0.25"/>
<stop offset="1" stop-color="#9AC554" stop-opacity="0"/>
<stop offset="1" stop-color="#D74FA9" stop-opacity="0"/>
</linearGradient>
<linearGradient id="paint3_linear_3967_4881" x1="18.5856" y1="25.7117" x2="19.4734" y2="20.4902" gradientUnits="userSpaceOnUse">
<stop stop-color="white"/>
<stop offset="1" stop-color="white" stop-opacity="0.2"/>
</linearGradient>
<linearGradient id="paint4_linear_3967_4881" x1="20.4975" y1="30.5765" x2="21.784" y2="25.5321" gradientUnits="userSpaceOnUse">
<stop stop-color="white"/>
<stop offset="1" stop-color="white" stop-opacity="0.2"/>
</linearGradient>
<linearGradient id="paint5_linear_3967_4881" x1="60.3576" y1="40.3063" x2="62.5322" y2="36.043" gradientUnits="userSpaceOnUse">
<stop stop-color="white"/>
<stop offset="1" stop-color="white" stop-opacity="0.2"/>
</linearGradient>
</defs>
</svg>
